<svg width="37" height="35" viewBox="0 0 37 35" fill="none" xmlns="http://www.w3.org/2000/svg">
<path d="M2.928 34.9999C2.128 34.9999 1.728 34.6639 1.728 33.9919V33.7999C1.728 33.3839 2.048 32.7439 2.688 31.8799C3.36 30.9839 3.696 30.1039 3.696 29.2399V6.67992C3.696 5.81592 3.36 4.95192 2.688 4.08792C2.048 3.19192 1.728 2.53592 1.728 2.11992V1.92792C1.728 1.25592 2.128 0.919922 2.928 0.919922H14.544C21.552 0.919922 26.912 2.50392 30.624 5.67192C34.336 8.80792 36.192 13.0159 36.192 18.2959C36.192 23.2239 34.464 27.2399 31.008 30.3439C27.552 33.4479 22.896 34.9999 17.04 34.9999H2.928ZM18.144 31.2559H19.584C21.44 31.2559 22.944 30.5679 24.096 29.1919C25.248 27.8159 25.824 25.7679 25.824 23.0479C25.824 18.2479 24.88 13.9919 22.992 10.2799C21.104 6.53592 18.768 4.66392 15.984 4.66392H15.84C14.24 4.66392 13.44 5.49592 13.44 7.15992V25.7359C13.44 27.4959 13.84 28.8559 14.64 29.8159C15.472 30.7759 16.64 31.2559 18.144 31.2559Z" fill="#160030"/>
<path d="M0 19.9999C0 18.1143 0 17.1715 0.585786 16.5857C1.17157 15.9999 2.11438 15.9999 4 15.9999H19C20.8856 15.9999 21.8284 15.9999 22.4142 16.5857C23 17.1715 23 18.1143 23 19.9999C23 21.8855 23 22.8284 22.4142 23.4141C21.8284 23.9999 20.8856 23.9999 19 23.9999H4C2.11438 23.9999 1.17157 23.9999 0.585786 23.4141C0 22.8284 0 21.8855 0 19.9999Z" fill="#160030"/>
</svg>
