<svg width="80" height="80" viewBox="0 0 80 80" fill="none" xmlns="http://www.w3.org/2000/svg">
<g clip-path="url(#clip0_243_9)">
<path d="M73.75 0H6.25C2.79687 0 0 2.79687 0 6.25V73.75C0 77.2031 2.79687 80 6.25 80H73.75C77.2031 80 80 77.2031 80 73.75V6.25C80 2.79687 77.2031 0 73.75 0ZM75.3125 73.75C75.3125 74.6094 74.6094 75.3125 73.75 75.3125H6.25C5.39062 75.3125 4.6875 74.6094 4.6875 73.75V6.25C4.6875 5.39062 5.39062 4.6875 6.25 4.6875H73.75C74.6094 4.6875 75.3125 5.39062 75.3125 6.25V73.75Z" fill="url(#paint0_linear_243_9)"/>
<path d="M58.375 36.8438C57.5469 35.6094 56.5 34.7031 55.2188 34.1406C53.9531 33.5625 52.5156 33.2813 50.9062 33.2969C48.2344 33.2969 46.0625 34.1406 44.375 35.8281C42.7031 37.5156 41.8594 39.9375 41.8594 43.1094C41.8594 46.4844 42.7969 48.9219 44.6562 50.4219C46.5156 51.9219 48.6563 52.6719 51.0938 52.6719C54.0469 52.6719 56.3281 51.7813 57.9688 50C59.0156 48.875 59.6094 47.7656 59.7344 46.6875H54.8594C54.5781 47.2344 54.25 47.6563 53.875 47.9531C53.1875 48.5156 52.2969 48.7969 51.2187 48.7969C50.1875 48.7969 49.3125 48.5625 48.5781 48.1094C47.375 47.375 46.75 46.0781 46.6719 44.25H59.9844C60.0156 42.6719 59.9531 41.4688 59.8281 40.625C59.6094 39.1875 59.125 37.9219 58.375 36.8438ZM46.7969 41.0938C46.9844 39.9063 47.4063 38.9688 48.0781 38.2656C48.75 37.5781 49.7031 37.2188 50.9219 37.2188C52.0469 37.2188 53 37.5469 53.7656 38.2031C54.5156 38.8594 54.9375 39.8281 55.0313 41.0938H46.7969Z" fill="url(#paint1_linear_243_9)"/>
<path d="M56.1562 28.4844H45.5625V31.5625H56.1562V28.4844Z" fill="url(#paint2_linear_243_9)"/>
<path d="M36.4531 38.7969C37.2813 38.375 37.9219 37.9063 38.3437 37.3906C39.1094 36.4688 39.4844 35.25 39.4844 33.75C39.4844 32.2813 39.1094 31.0156 38.3594 29.9688C37.0937 28.25 34.9531 27.375 31.9531 27.3281H20V52.0625H31.125C32.3906 52.0625 33.5469 51.9531 34.625 51.7344C35.7031 51.5 36.6406 51.0938 37.4219 50.4844C38.125 49.9688 38.7031 49.3125 39.1719 48.5469C39.9219 47.3906 40.2812 46.0781 40.2812 44.6094C40.2812 43.1875 39.9531 41.9844 39.3125 40.9844C38.6719 39.9844 37.7188 39.2656 36.4531 38.7969ZM24.9219 31.625H30.2969C31.4844 31.625 32.4531 31.7656 33.2188 32.0156C34.1094 32.3906 34.5469 33.1406 34.5469 34.2969C34.5469 35.3281 34.2187 36.0625 33.5469 36.4688C32.875 36.875 32.0156 37.0781 30.9375 37.0781H24.9219V31.625ZM33.4375 47.3125C32.8438 47.6094 32.0156 47.75 30.9375 47.75H24.9219V41.1562H31.0156C32.0781 41.1719 32.8906 41.3125 33.4844 41.5781C34.5469 42.0625 35.0625 42.9531 35.0625 44.2344C35.0625 45.75 34.5312 46.7656 33.4375 47.3125Z" fill="url(#paint3_linear_243_9)"/>
</g>
<defs>
<linearGradient id="paint0_linear_243_9" x1="9.42509e-07" y1="2.79999" x2="77.1998" y2="75.6" gradientUnits="userSpaceOnUse">
<stop offset="0.0350682" stop-color="#6137BA"/>
<stop offset="1" stop-color="#DEBAF4"/>
</linearGradient>
<linearGradient id="paint1_linear_243_9" x1="41.8594" y1="33.9744" x2="60.4437" y2="50.3756" gradientUnits="userSpaceOnUse">
<stop offset="0.0350682" stop-color="#6137BA"/>
<stop offset="1" stop-color="#DEBAF4"/>
</linearGradient>
<linearGradient id="paint2_linear_243_9" x1="45.5625" y1="28.5921" x2="47.2371" y2="34.0271" gradientUnits="userSpaceOnUse">
<stop offset="0.0350682" stop-color="#6137BA"/>
<stop offset="1" stop-color="#DEBAF4"/>
</linearGradient>
<linearGradient id="paint3_linear_243_9" x1="20" y1="28.1938" x2="43.1402" y2="46.0866" gradientUnits="userSpaceOnUse">
<stop offset="0.0350682" stop-color="#6137BA"/>
<stop offset="1" stop-color="#DEBAF4"/>
</linearGradient>
<clipPath id="clip0_243_9">
<rect width="80" height="80" rx="5" fill="white"/>
</clipPath>
</defs>
</svg>
