<svg width="402" height="436" viewBox="0 0 402 436" fill="none" xmlns="http://www.w3.org/2000/svg">
<path d="M193.075 342.802C192.605 343.366 192.338 343.969 192.203 344.388C192.063 344.812 191.977 345.01 191.71 345.078C191.692 345.096 191.33 345.127 191.281 345.132C189.083 345.33 186.461 345.655 184.26 345.749C180.589 345.988 176.548 346.078 172.868 346.123C154.089 346.083 135.355 344.497 116.738 342.144C116.738 342.144 118.633 339.77 118.633 339.774C119.709 341.599 120.825 343.46 122.023 345.2C127.615 353.338 134.663 361.426 144.27 364.599C147.764 365.766 151.462 365.987 155.092 365.626C169.925 364.225 182.289 352.68 190.914 341.018C191.448 340.315 191.968 339.558 192.474 338.841L192.573 338.697L192.623 338.625C191.909 339.869 192.158 341.811 193.071 342.807L193.075 342.802ZM199.368 337.922C200.308 339.107 200.453 341.018 199.676 342.401L199.581 342.622L199.4 343.046C196.579 349.224 192.741 354.888 188.143 359.908C183.225 365.27 177.284 369.871 170.589 372.836C155.716 379.388 139.758 377.64 128.316 365.599C123.262 360.349 119.758 354.262 117.227 347.628C116.427 345.429 115.721 343.262 115.242 340.959C114.745 339.747 115.839 338.386 117.132 338.584C135.169 339.86 153.37 340.436 171.439 339.535C172.813 339.477 174.943 339.314 176.326 339.211C179.029 339.053 182.117 338.67 184.807 338.386C186.407 338.161 188.559 337.814 190.159 337.575L190.458 337.53L190.96 337.44C193.541 336.913 196.931 337.278 199.373 337.922H199.368Z" fill="#160030"/>
<path d="M235.999 256.517C249.159 260.73 232.916 285.379 227.279 283.581C221.642 281.779 222.844 252.304 235.999 256.517Z" fill="#160030"/>
<path d="M111.042 231.287C124.442 234.657 109.812 260.289 104.071 258.847C98.3299 257.409 97.6427 227.916 111.042 231.287Z" fill="#160030"/>
<path d="M209.648 212.91C216.714 211.036 224.015 210.161 231.298 209.85C252.866 208.918 275.189 214.812 291.889 228.835C296.102 232.449 291.324 238.744 286.681 235.658C273.847 225.857 257.726 221.057 241.632 220.904C232.256 220.787 222.79 221.914 213.789 224.545L213.54 224.622L213.351 224.685L213.278 224.708C210.032 225.785 206.529 224.036 205.444 220.805C204.318 217.475 206.253 213.848 209.648 212.91Z" fill="#160030"/>
<path d="M140.12 208.354C128.75 198.067 113.348 192.015 98.0138 191.402C92.7607 191.235 87.4579 191.663 82.2274 192.677C80.1931 193.069 78.2266 191.744 77.8288 189.717C77.4536 187.784 78.6561 185.909 80.5322 185.395C86.1921 183.868 92.0645 182.953 98.0002 182.709C103.949 182.534 109.935 182.989 115.776 184.206C126.829 186.49 137.421 191.06 146.544 197.729C147.204 198.22 147.913 198.77 148.542 199.31C154.337 205.105 146.367 213.685 140.12 208.354Z" fill="#160030"/>
<path d="M391.738 238.623C389.762 236.807 387.728 235.329 385.852 234.139C397.484 218.34 395.725 188.175 395.164 179.149C394.97 176 394.626 172.868 394.165 169.758C388.627 95.969 341.354 58.9007 341.354 58.9007C348.447 70.0356 352.24 80.0259 354.234 86.9565C340.206 69.4003 326.183 56.4088 318.701 50.4966C318.701 50.4966 271.803 -2.07301 211.61 0.0584371C211.61 0.0584371 249.53 0.734371 284.665 28.5558C221.723 -4.02421 155.318 0.518072 132.213 5.33974C123.149 7.23235 104.351 10.4183 83.6872 18.3312C79.5236 18.2501 75.3691 18.4934 71.2191 19.0116C54.5964 21.0755 38.2766 28.718 34.7233 46.6033L34.4205 48.2661C18.7697 63.1636 6.25641 83.356 1.56391 110.889C-6.0761 155.726 15.7273 189.158 34.7912 208.976C33.3129 222.513 30.4061 231.733 27.5942 240.65C24.9767 248.955 22.4993 256.801 21.7986 266.629C20.9894 277.894 20.7227 290.417 24.1991 305.626C27.7072 320.983 34.5696 337.323 45.7855 357.042C56.7799 376.373 75.672 403.1 91.1645 416.096C113.931 435.193 147.366 435.68 167.339 435.968L169.111 435.995C169.341 435.995 169.572 436 169.807 436C187.854 436 220.281 425.559 226.668 423.441C234.412 420.872 254.728 413.514 276.016 400.639C298.597 386.981 315.654 371.281 326.811 353.892C332.295 356.952 340.518 360.831 347.955 361.53C355.043 362.197 363.104 359.466 368.989 354.401C373.592 350.44 379.211 343.117 379.857 330.734C380.011 327.81 379.826 324.034 379.631 320.032C379.374 314.746 379.053 308.163 379.722 304.995C380.829 299.741 383.619 296.712 387.479 292.522C392.244 287.344 398.175 280.9 401.023 268.927C403.804 257.229 400.589 246.752 391.733 238.618L391.738 238.623ZM206.04 85.884L225.357 102.895C225.999 103.463 226.944 103.539 227.672 103.084L253.888 86.6771C254.67 86.186 255.691 86.3166 256.329 86.9881L279.882 111.853C280.456 112.457 281.351 112.628 282.11 112.277L305.36 101.485C306.301 101.047 307.422 101.426 307.901 102.345L327.801 172.773C328.8 174.697 326.355 176.554 324.763 175.08L295.356 128.188C294.597 127.486 293.417 127.504 292.68 128.229L272.743 147.764C271.93 148.561 270.61 148.489 269.886 147.61L245.212 117.635C244.584 116.873 243.485 116.702 242.658 117.238L218.038 133.177C216.94 133.889 215.462 133.33 215.113 132.068L202.898 87.8397C202.388 85.9877 204.607 84.6043 206.049 85.8795L206.04 85.884ZM307.11 193.331C313.19 197.44 319.076 209.201 321.332 215.352C323.877 222.279 329.044 236.072 329.7 243.971L300.686 246.626C296.342 247.022 291.966 246.851 287.666 246.116L78.0454 210.224C67.3222 196.773 53.7058 172.886 73.9948 155.528C81.6393 148.985 102.805 145.601 112.855 144.893C133.813 143.424 175.842 150.391 196.212 155.528C215.412 160.367 283.792 177.581 307.105 193.335L307.11 193.331ZM281.771 272.703C277.549 281.472 271.401 290.895 262.893 296.618C259.688 298.776 250.194 301.02 244.67 301.345C234.376 301.971 199.91 296.284 192.713 284.807C186.081 274.235 188.491 258.076 191.28 247.315C192.302 243.377 196.176 240.88 200.2 241.57L271.984 253.863C280.704 255.354 285.6 264.75 281.771 272.703ZM72.0645 221.517C73.6738 220.62 75.5951 220.237 77.5752 220.575L138.049 230.93C141.43 231.507 143.768 234.585 143.456 237.992C142.66 246.797 139.161 260.879 126.051 272.365C121.905 276.002 107.073 275.835 95.7078 273.6C88.0361 272.09 74.257 266.489 70.9704 261.492C67.7698 256.629 67.2499 241.921 67.7788 228.47C67.7879 228.2 67.815 227.934 67.8512 227.672C72.4171 230.674 77.9097 233.445 83.4838 234.292L72.0645 221.517ZM82.2406 113.868L124.288 65.4032C125.142 64.8129 126.309 65.0022 126.937 65.8268L142.416 86.213C142.918 86.8754 143.795 87.1458 144.586 86.8754L171.547 77.7638C173.437 77.1239 174.947 79.4086 173.609 80.8866L136.937 121.452C135.933 122.56 134.102 122.164 133.65 120.74L125.59 95.3741C125.278 94.3918 124.243 93.824 123.243 94.0899L83.85 117.319C81.7478 117.878 80.4594 115.093 82.2496 113.863L82.2406 113.868ZM53.3306 30.7503C60.0891 25.5321 68.8773 22.4409 77.6159 20.7781C67.3584 25.1176 56.8387 30.6692 46.9745 37.8386C48.5974 35.1214 50.799 32.7241 53.3306 30.7503ZM58.882 220.697C58.7736 222.256 58.6651 223.964 58.5746 225.775L56.3504 218.277C56.3504 218.277 57.2772 219.241 58.882 220.697ZM387.827 265.813C385.798 274.352 381.761 278.742 377.488 283.383C373.194 288.047 368.329 293.333 366.453 302.214C365.423 307.086 365.762 314.003 366.087 320.694C366.263 324.345 366.435 327.792 366.318 330.036C365.997 336.155 363.917 340.914 360.129 344.172C356.562 347.241 352.087 348.34 349.229 348.074C342.109 347.403 331.712 341.279 328.308 338.976L322.141 334.79L318.547 341.306C294.511 384.904 234.232 406.687 222.387 410.612C205.516 416.204 181.52 422.675 169.319 422.477L167.533 422.45C149.364 422.184 118.958 421.742 99.8895 405.75C86.3092 394.358 68.3213 369.267 57.5756 350.373C34.425 309.668 33.7966 288.799 35.3201 267.589C35.9123 259.342 38.0506 252.556 40.5279 244.702C42.7205 237.748 45.13 230.101 46.8705 220.255C52.1552 224.685 56.3776 227.609 58.4255 228.961C57.9191 242.169 58.3577 259.207 63.1993 266.561C68.8954 275.218 86.6709 281.251 93.904 282.675C95.4411 282.977 103.452 284.469 112.082 284.469C117.362 284.469 122.868 283.906 127.271 282.18C120.825 293.152 115.924 301.489 115.924 301.489C114.365 303.945 115.884 307.401 118.768 307.901L169.341 317.707C170.318 317.892 171.308 317.315 171.593 316.346C171.9 315.31 171.308 314.224 170.272 313.917L126.173 300.872L144.803 263.979C145.906 262.064 146.86 260.153 147.687 258.265L149.934 253.822C152.194 250.641 155.72 248.469 159.68 247.919C161.796 247.626 163.898 247.576 165.788 247.946C167.917 248.365 169.992 249.181 171.927 250.195C176.818 252.759 179.576 258.04 179.296 263.542C178.835 272.564 180.024 282.045 184.834 289.714C195.2 306.248 232.993 310.628 243.72 310.628C244.299 310.628 244.801 310.614 245.217 310.592C250.217 310.294 262.459 308.082 268.083 304.292C283.534 293.896 291.988 274.262 295.844 262.636C296.934 259.351 299.872 257.026 303.331 256.711L327.498 254.503C325.554 260.135 323.253 266.214 324.492 269.891C325.903 274.078 335.423 278.647 340.83 278.449C340.636 278.773 340.441 279.102 340.256 279.431C331.404 295.113 333.841 315.652 343.664 330.207C345.211 332.46 348.759 331.18 348.515 328.463C348.081 322.623 347.403 316.896 347.276 311.069C347.295 310.411 347.29 308.415 347.276 307.753C347.331 305.743 347.475 303.291 347.665 301.291C349.198 286.353 356.472 274.911 367.602 265.025L368.207 264.132C369.46 262.343 367.828 259.833 365.662 260.262C360.246 261.284 355.228 263.704 350.898 267.057C352.123 264.304 353.221 261.379 354.139 258.693C356.255 252.502 361.087 247.622 367.281 245.463C369.433 244.715 371.666 243.89 373.705 243.061C374.437 243.341 378.958 245.161 382.814 248.811C387.787 253.52 389.423 259.081 387.823 265.809L387.827 265.813Z" fill="url(#paint0_linear_220_4)"/>
<defs>
<linearGradient id="paint0_linear_220_4" x1="5.75563e-07" y1="-2.04826e-06" x2="402" y2="436" gradientUnits="userSpaceOnUse">
<stop stop-color="#160030"/>
<stop offset="1" stop-color="#250946"/>
</linearGradient>
</defs>
</svg>
