<svg width="128" height="128" viewBox="0 0 128 128" fill="none" xmlns="http://www.w3.org/2000/svg">
<path d="M7.07107 106.066C3.73773 102.733 2.07107 101.066 2.07107 98.9949C2.07107 96.9239 3.73773 95.2572 7.07107 91.9239L77.7817 21.2132C81.1151 17.8799 82.7817 16.2132 84.8528 16.2132C86.9239 16.2132 88.5905 17.8799 91.9239 21.2132L98.9949 28.2843L14.1421 113.137L7.07107 106.066Z" fill="#6C3CD1"/>
<path d="M28.2842 98.9949L113.137 14.1421L120.208 21.2132C123.541 24.5465 125.208 26.2132 125.208 28.2843C125.208 30.3553 123.541 32.022 120.208 35.3553L49.4974 106.066C46.164 109.399 44.4974 111.066 42.4263 111.066C40.3552 111.066 38.6886 109.399 35.3552 106.066L28.2842 98.9949Z" fill="#8D83FF"/>
</svg>
