<svg width="23" height="24" viewBox="0 0 23 24" fill="none" xmlns="http://www.w3.org/2000/svg">
<rect x="4" y="10" width="10" height="4" rx="1" fill="#6C3CD1"/>
<path d="M3.56 20C3.176 20 2.984 19.848 2.984 19.544V19.448C2.984 19.256 3.144 18.968 3.464 18.584C3.784 18.184 3.944 17.784 3.944 17.384V5.576C3.944 5.176 3.784 4.784 3.464 4.4C3.144 4 2.984 3.704 2.984 3.512V3.416C2.984 3.112 3.176 2.96 3.56 2.96H9.224C12.568 2.96 15.168 3.752 17.024 5.336C18.896 6.92 19.832 9 19.832 11.576C19.832 14.088 18.968 16.12 17.24 17.672C15.528 19.224 13.256 20 10.424 20H3.56ZM10.328 18.32H11.288C12.472 18.32 13.432 17.912 14.168 17.096C14.904 16.28 15.272 15.112 15.272 13.592C15.272 12.04 15.032 10.584 14.552 9.224C14.072 7.848 13.392 6.744 12.512 5.912C11.632 5.064 10.656 4.64 9.584 4.64H9.32C8.6 4.64 8.24 5.024 8.24 5.792V15.848C8.24 16.632 8.424 17.24 8.792 17.672C9.16 18.104 9.672 18.32 10.328 18.32Z" fill="url(#paint0_linear_195_34)"/>
<defs>
<linearGradient id="paint0_linear_195_34" x1="2" y1="0.839997" x2="24.2429" y2="17.4454" gradientUnits="userSpaceOnUse">
<stop stop-color="#4333B4"/>
<stop offset="1" stop-color="#DEBAF4"/>
</linearGradient>
</defs>
</svg>
