<svg width="80" height="80" viewBox="0 0 80 80" fill="none" xmlns="http://www.w3.org/2000/svg">
<g clip-path="url(#clip0_243_2)">
<path fill-rule="evenodd" clip-rule="evenodd" d="M23.4786 0.490917C16.9671 0.784717 11.3233 2.3767 6.76597 6.91474C2.19278 11.4766 0.620566 17.1428 0.326034 23.5866C0.142946 27.6085 -0.927656 57.9932 2.17686 65.9616C4.27042 71.3374 8.39376 75.4707 13.8187 77.571C16.3501 78.5556 19.2398 79.2221 23.4786 79.4167C58.9219 81.0207 72.0603 80.1474 77.6007 65.9616C78.5838 63.4365 79.2604 60.5493 79.4475 56.321C81.0674 20.7868 79.1849 13.0846 73.0077 6.91474C68.1081 2.0273 62.3448 -1.29968 23.4786 0.490917ZM23.8049 72.2702C19.9243 72.0955 17.8188 71.4489 16.4138 70.905C12.8794 69.5312 10.2247 66.8874 8.85948 63.3737C6.49527 57.319 7.27939 28.5621 7.49034 23.9089C7.69731 19.351 8.62069 15.1854 11.8367 11.9694C15.8168 7.99911 20.9591 6.05329 55.9725 7.63349C60.5417 7.83993 64.717 8.76143 67.9409 11.9694C71.9211 15.9397 73.8952 21.1216 72.2872 56.0007C72.1121 59.8717 71.4634 61.9722 70.9181 63.3737C67.316 72.6046 59.0293 73.8861 23.8049 72.2702ZM56.3586 18.7585C56.3586 21.3869 58.496 23.5241 61.1349 23.5241C63.7737 23.5241 65.915 21.3869 65.915 18.7585C65.915 16.1302 63.7737 13.9948 61.1349 13.9948C58.496 13.9948 56.3586 16.1302 56.3586 18.7585ZM19.4507 39.9518C19.4507 51.2116 28.6011 60.3405 39.8888 60.3405C51.1765 60.3405 60.3269 51.2116 60.3269 39.9518C60.3269 28.6921 51.1765 19.569 39.8888 19.569C28.6011 19.569 19.4507 28.6921 19.4507 39.9518ZM26.6229 39.9518C26.6229 32.6465 32.5613 26.7194 39.8888 26.7194C47.2162 26.7194 53.1546 32.6465 53.1546 39.9518C53.1546 47.2612 47.2162 53.1901 39.8888 53.1901C32.5613 53.1901 26.6229 47.2612 26.6229 39.9518Z" fill="url(#paint0_linear_243_2)"/>
</g>
<defs>
<linearGradient id="paint0_linear_243_2" x1="9.42508e-07" y1="2.8" x2="77.2" y2="75.6" gradientUnits="userSpaceOnUse">
<stop offset="0.0350682" stop-color="#6137BA"/>
<stop offset="1" stop-color="#DEBAF4"/>
</linearGradient>
<clipPath id="clip0_243_2">
<rect width="80" height="80" fill="white"/>
</clipPath>
</defs>
</svg>
