<svg width="233" height="60" viewBox="0 0 233 60" fill="none" xmlns="http://www.w3.org/2000/svg">
<path d="M3.12 45C2.352 45 1.968 44.696 1.968 44.088V43.896C1.968 43.512 2.288 42.936 2.928 42.168C3.568 41.368 3.888 40.568 3.888 39.768V16.152C3.888 15.352 3.568 14.568 2.928 13.8C2.288 13 1.968 12.408 1.968 12.024V11.832C1.968 11.224 2.352 10.92 3.12 10.92H14.448C21.136 10.92 26.336 12.504 30.048 15.672C33.792 18.84 35.664 23 35.664 28.152C35.664 33.176 33.936 37.24 30.48 40.344C27.056 43.448 22.512 45 16.848 45H3.12ZM16.656 41.64H18.576C20.944 41.64 22.864 40.824 24.336 39.192C25.808 37.56 26.544 35.224 26.544 32.184C26.544 29.08 26.064 26.168 25.104 23.448C24.144 20.696 22.784 18.488 21.024 16.824C19.264 15.128 17.312 14.28 15.168 14.28H14.64C13.2 14.28 12.48 15.048 12.48 16.584V36.696C12.48 38.264 12.848 39.48 13.584 40.344C14.32 41.208 15.344 41.64 16.656 41.64ZM60.7031 39.768C60.7991 40.536 60.9751 41.16 61.2311 41.64C61.5191 42.088 61.7911 42.376 62.0471 42.504C62.3351 42.632 62.5911 42.792 62.8151 42.984C63.0391 43.176 63.1511 43.416 63.1511 43.704C63.1511 44.76 61.3431 45.288 57.7271 45.288C56.2551 45.288 55.1511 45.112 54.4151 44.76C53.7111 44.408 53.2631 43.816 53.0711 42.984C51.8551 44.648 49.8231 45.48 46.9751 45.48C44.2871 45.48 42.0951 44.856 40.3991 43.608C38.7351 42.36 37.9031 40.552 37.9031 38.184C37.9031 35.88 38.7351 34.088 40.3991 32.808C42.0631 31.496 44.1111 30.84 46.5431 30.84C48.4311 30.84 50.0471 31.24 51.3911 32.04V31.896C51.0711 28.728 50.7031 26.584 50.2871 25.464C49.9031 24.344 49.1351 23.784 47.9831 23.784C47.2471 23.784 46.6551 24.12 46.2071 24.792C45.7591 25.464 45.4231 26.2 45.1991 27C45.0071 27.8 44.6231 28.536 44.0471 29.208C43.4711 29.88 42.7031 30.216 41.7431 30.216C40.7511 30.216 39.9351 29.928 39.2951 29.352C38.6871 28.776 38.3831 28.024 38.3831 27.096C38.3831 25.24 39.3111 23.848 41.1671 22.92C43.0231 21.96 45.2951 21.48 47.9831 21.48C51.1831 21.48 53.8231 22.36 55.9031 24.12C58.0151 25.848 59.2631 28.2 59.6471 31.176L60.7031 39.768ZM49.6151 43.032C50.3511 43.032 50.9431 42.68 51.3911 41.976C51.8711 41.272 52.1111 40.472 52.1111 39.576L51.9191 37.368C51.5991 34.712 50.6071 33.384 48.9431 33.384C48.2071 33.384 47.6151 33.688 47.1671 34.296C46.7191 34.872 46.4951 35.656 46.4951 36.648C46.4951 38.44 46.7671 39.96 47.3111 41.208C47.8871 42.424 48.6551 43.032 49.6151 43.032ZM90.4046 39.768C90.4686 40.568 90.7726 41.368 91.3166 42.168C91.8606 42.936 92.1326 43.528 92.1326 43.944V44.136C92.1326 44.744 91.7486 45.048 90.9806 45.048H81.3806C80.6126 45.048 80.2286 44.744 80.2286 44.136V43.944C80.2286 43.56 80.5326 42.968 81.1406 42.168C81.7486 41.368 82.0206 40.568 81.9566 39.768L81.4766 31.176C81.3486 28.808 81.0286 27.128 80.5166 26.136C80.0366 25.144 79.2526 24.648 78.1646 24.648C77.1406 24.648 76.3566 25.064 75.8126 25.896C75.3006 26.728 75.0446 27.864 75.0446 29.304V39.768C75.0446 40.568 75.3966 41.368 76.1006 42.168C76.8046 42.968 77.1566 43.56 77.1566 43.944V44.136C77.1566 44.744 76.7726 45.048 76.0046 45.048H65.6366C64.8686 45.048 64.4846 44.744 64.4846 44.136V43.944C64.4846 43.56 64.8366 42.968 65.5406 42.168C66.2446 41.368 66.5966 40.568 66.5966 39.768V30.312C66.5966 29.64 66.3886 29.08 65.9726 28.632C65.5566 28.152 65.1246 27.752 64.6766 27.432C64.2606 27.08 64.0526 26.712 64.0526 26.328V26.184C64.0526 25.768 64.4366 25.368 65.2046 24.984L71.9246 21.672C72.5326 21.416 72.9806 21.416 73.2686 21.672C73.5886 21.896 73.7486 22.28 73.7486 22.824V25.08C75.0926 22.68 77.3806 21.48 80.6126 21.48C83.0126 21.48 85.0766 22.264 86.8046 23.832C88.5326 25.4 89.5246 27.944 89.7806 31.464L90.4046 39.768ZM115.903 37.32C116.863 37.32 117.199 37.816 116.911 38.808L115.471 43.848C115.247 44.616 114.847 45 114.271 45H95.0228C94.7028 45 94.4148 44.888 94.1588 44.664C93.9028 44.44 93.7748 44.168 93.7748 43.848V43.224C93.7748 42.872 94.1268 42.216 94.8308 41.256L106.111 24.072H102.031C101.327 24.072 100.639 24.344 99.9668 24.888C99.2948 25.4 98.7508 25.976 98.3348 26.616C97.9188 27.256 97.4228 27.848 96.8468 28.392C96.2708 28.904 95.6948 29.16 95.1188 29.16H94.8308C94.3188 29.16 93.9668 28.984 93.7748 28.632C93.5828 28.28 93.5668 27.848 93.7268 27.336L95.0228 23.448C95.2148 22.872 95.4068 22.488 95.5988 22.296C95.8228 22.072 96.1908 21.96 96.7028 21.96H114.559C114.879 21.96 115.135 22.056 115.327 22.248C115.551 22.408 115.663 22.616 115.663 22.872V23.352C115.663 23.672 115.167 24.616 114.175 26.184L103.231 42.888H107.839C108.671 42.888 109.471 42.6 110.239 42.024C111.039 41.448 111.679 40.808 112.159 40.104C112.671 39.4 113.231 38.76 113.839 38.184C114.447 37.608 115.023 37.32 115.567 37.32H115.903ZM131.445 45.48C127.733 45.48 124.581 44.344 121.989 42.072C119.429 39.768 118.149 36.888 118.149 33.432C118.149 29.976 119.429 27.128 121.989 24.888C124.549 22.616 127.589 21.48 131.109 21.48C134.757 21.48 137.861 22.616 140.421 24.888C142.981 27.16 144.261 30.04 144.261 33.528C144.261 36.984 143.013 39.848 140.517 42.12C138.021 44.36 134.997 45.48 131.445 45.48ZM132.453 43.128C134.501 43.128 135.525 41.16 135.525 37.224C135.525 35.784 135.317 34.072 134.901 32.088C134.517 30.104 133.845 28.232 132.885 26.472C131.957 24.712 130.917 23.832 129.765 23.832C128.645 23.832 127.845 24.328 127.365 25.32C126.885 26.312 126.645 27.816 126.645 29.832C126.645 30.888 126.773 32.136 127.029 33.576C127.285 35.016 127.637 36.472 128.085 37.944C128.533 39.384 129.141 40.616 129.909 41.64C130.709 42.632 131.557 43.128 132.453 43.128ZM147.425 45C146.689 45 146.321 44.696 146.321 44.088V43.896C146.321 43.512 146.625 42.936 147.233 42.168C147.873 41.368 148.193 40.568 148.193 39.768V17.832C148.193 17 147.873 16.2 147.233 15.432C146.625 14.632 146.321 14.072 146.321 13.752V13.56C146.321 13.208 146.673 12.84 147.377 12.456L154.625 8.904C155.297 8.616 155.825 8.6 156.209 8.856C156.625 9.08 156.833 9.432 156.833 9.912V39.768C156.833 40.568 157.185 41.368 157.889 42.168C158.593 42.936 158.945 43.512 158.945 43.896V44.088C158.945 44.696 158.561 45 157.793 45H147.425ZM167.476 19.128C165.844 19.128 164.516 18.68 163.492 17.784C162.468 16.856 161.956 15.704 161.956 14.328C161.956 12.952 162.468 11.816 163.492 10.92C164.516 9.992 165.844 9.528 167.476 9.528C169.076 9.528 170.388 9.992 171.412 10.92C172.436 11.816 172.948 12.952 172.948 14.328C172.948 15.704 172.436 16.856 171.412 17.784C170.388 18.68 169.076 19.128 167.476 19.128ZM162.34 45C161.572 45 161.188 44.696 161.188 44.088V43.896C161.188 43.512 161.508 42.92 162.148 42.12C162.788 41.32 163.108 40.52 163.108 39.72V30.6C163.108 29.768 162.788 28.968 162.148 28.2C161.508 27.4 161.188 26.856 161.188 26.568V26.376C161.188 25.992 161.556 25.624 162.292 25.272L169.54 21.72C170.212 21.432 170.74 21.4 171.124 21.624C171.508 21.848 171.7 22.216 171.7 22.728V39.72C171.7 40.52 172.052 41.32 172.756 42.12C173.492 42.92 173.86 43.512 173.86 43.896V44.088C173.86 44.696 173.46 45 172.66 45H162.34ZM201.967 39.768C202.031 40.568 202.335 41.368 202.879 42.168C203.423 42.936 203.695 43.528 203.695 43.944V44.136C203.695 44.744 203.311 45.048 202.543 45.048H192.943C192.175 45.048 191.791 44.744 191.791 44.136V43.944C191.791 43.56 192.095 42.968 192.703 42.168C193.311 41.368 193.583 40.568 193.519 39.768L193.039 31.176C192.911 28.808 192.591 27.128 192.079 26.136C191.599 25.144 190.815 24.648 189.727 24.648C188.703 24.648 187.919 25.064 187.375 25.896C186.863 26.728 186.607 27.864 186.607 29.304V39.768C186.607 40.568 186.959 41.368 187.663 42.168C188.367 42.968 188.719 43.56 188.719 43.944V44.136C188.719 44.744 188.335 45.048 187.567 45.048H177.199C176.431 45.048 176.047 44.744 176.047 44.136V43.944C176.047 43.56 176.399 42.968 177.103 42.168C177.807 41.368 178.159 40.568 178.159 39.768V30.312C178.159 29.64 177.951 29.08 177.535 28.632C177.119 28.152 176.687 27.752 176.239 27.432C175.823 27.08 175.615 26.712 175.615 26.328V26.184C175.615 25.768 175.999 25.368 176.767 24.984L183.487 21.672C184.095 21.416 184.543 21.416 184.831 21.672C185.151 21.896 185.311 22.28 185.311 22.824V25.08C186.655 22.68 188.943 21.48 192.175 21.48C194.575 21.48 196.639 22.264 198.367 23.832C200.095 25.4 201.087 27.944 201.343 31.464L201.967 39.768ZM218.585 45.48C214.873 45.48 211.721 44.344 209.129 42.072C206.569 39.768 205.289 36.888 205.289 33.432C205.289 29.976 206.569 27.128 209.129 24.888C211.689 22.616 214.729 21.48 218.249 21.48C221.897 21.48 225.001 22.616 227.561 24.888C230.121 27.16 231.401 30.04 231.401 33.528C231.401 36.984 230.153 39.848 227.657 42.12C225.161 44.36 222.137 45.48 218.585 45.48ZM219.593 43.128C221.641 43.128 222.665 41.16 222.665 37.224C222.665 35.784 222.457 34.072 222.041 32.088C221.657 30.104 220.985 28.232 220.025 26.472C219.097 24.712 218.057 23.832 216.905 23.832C215.785 23.832 214.985 24.328 214.505 25.32C214.025 26.312 213.785 27.816 213.785 29.832C213.785 30.888 213.913 32.136 214.169 33.576C214.425 35.016 214.777 36.472 215.225 37.944C215.673 39.384 216.281 40.616 217.049 41.64C217.849 42.632 218.697 43.128 219.593 43.128Z" fill="#160030"/>
<rect y="25" width="23" height="8" rx="2" fill="#160030"/>
</svg>
