<svg width="80" height="80" viewBox="0 0 80 80" fill="none" xmlns="http://www.w3.org/2000/svg">
<g clip-path="url(#clip0_190_11)">
<path fill-rule="evenodd" clip-rule="evenodd" d="M68.3762 11.622C60.9605 4.1574 50.8655 -0.0279158 40.3438 0.000140148C18.4986 0.000140148 0.720023 17.7769 0.712423 39.6277C0.703093 46.582 2.52787 53.4157 6.00267 59.4397L0.379883 79.9773L21.3889 74.4667C27.199 77.6327 33.7102 79.2913 40.3268 79.2913H40.3438C62.1852 79.2913 79.9655 61.5127 79.9732 39.662C80.0072 29.1416 75.8312 19.0449 68.3762 11.622ZM40.3438 72.5893H40.3305C34.4312 72.592 28.6397 71.0083 23.5628 68.004L22.3599 67.2913L9.89437 70.5617L13.2236 58.4L12.4388 57.1537C9.1442 51.903 7.40114 45.828 7.41077 39.6297C7.41077 21.4728 22.187 6.69277 40.3572 6.69277C49.0945 6.6978 57.4722 10.1736 63.6468 16.3554C69.8215 22.5372 73.2875 30.9188 73.2825 39.6563C73.2748 57.8187 58.4985 72.5893 40.3438 72.5893ZM58.4112 47.9183C57.4212 47.4223 52.5528 45.0283 51.6445 44.688C50.7362 44.348 50.0768 44.192 49.4175 45.184C48.7582 46.176 46.8598 48.405 46.2822 49.0663C45.7045 49.7273 45.1268 49.809 44.1365 49.3133C43.1465 48.8173 39.9562 47.772 36.1728 44.3993C33.2293 41.773 31.2321 38.5313 30.6621 37.5393C30.092 36.5473 30.6013 36.019 31.0972 35.5173C31.5419 35.0747 32.0872 34.362 32.5813 33.7827C33.0754 33.203 33.2426 32.7925 33.5712 32.1313C33.9002 31.47 33.7365 30.8923 33.4895 30.3963C33.2426 29.9004 31.2606 25.0263 30.4359 23.0443C29.6321 21.1137 28.8169 21.374 28.2089 21.3341C27.6388 21.3056 26.9699 21.2999 26.3086 21.2999C25.2939 21.3264 24.3364 21.7756 23.6673 22.5389C22.7609 23.5308 20.2032 25.9251 20.2032 30.7992C20.2032 35.6733 23.7509 40.382 24.245 41.0433C24.739 41.7047 31.2283 51.7057 41.1572 55.9963C43.0012 56.7917 44.8855 57.4893 46.8028 58.0867C49.1742 58.8467 51.3328 58.7347 53.0392 58.48C54.9395 58.195 58.8978 56.0837 59.7242 53.771C60.5508 51.4587 60.5492 49.4747 60.2945 49.0623C60.0398 48.65 59.4012 48.422 58.4112 47.926V47.9183Z" fill="url(#paint0_linear_190_11)"/>
</g>
<defs>
<linearGradient id="paint0_linear_190_11" x1="0.379884" y1="2.7992" x2="77.5351" y2="75.208" gradientUnits="userSpaceOnUse">
<stop stop-color="#9383FF"/>
<stop offset="1" stop-color="#DCD6FF"/>
</linearGradient>
<clipPath id="clip0_190_11">
<rect width="80" height="80" fill="white"/>
</clipPath>
</defs>
</svg>
